<svg xmlns="http://www.w3.org/2000/svg" xmlns:xlink="http://www.w3.org/1999/xlink" width="256" height="256" fill="none" xmlns:v="https://vecta.io/nano"><use xlink:href="#C" fill="#fff"/><use xlink:href="#C" fill="url(#B)"/><g filter="url(#A)"><circle cx="128" cy="128" r="80" transform="rotate(90 128 128)" fill="#f8f8f8"/></g><path d="M207.99 127.392v55.724a24.97 24.97 0 0 1-7.479 17.314 24.92 24.92 0 0 1-34.896 0 24.97 24.97 0 0 1-7.479-17.314v-65.89c0-13.795 49.854 10.166 49.854 10.166z" fill="#017aff"/><path opacity=".01" d="M207.989 130.823v23.312c-10.595 24.128-31.055 26.962-31.055 26.962l18.579-45.725c4.681-.46 8.6-3.587 12.476-4.549z" fill="#000"/><path d="M208 127.967a79.94 79.94 0 0 1-7.9 34.726c-5.211 10.833-12.797 20.349-22.194 27.838a78.28 78.28 0 0 1-9.028 6.275l-1.16.691a76.95 76.95 0 0 1-2.215 1.213 14.41 14.41 0 0 0 1.191-.659c-11.63 6.003-26.781 5.229-39.895-2.04-15.517-8.597-28.213-26.272-28.861-52.596v-2.238c.008 4.499 1.798 8.812 4.976 11.993a16.98 16.98 0 0 0 11.983 4.981h26.322c27.523 0 45.977-12.958 54.785-28.929 7.451-13.481 8.067-29.075 1.557-40.788.397.69.774 1.38 1.139 2.092l.93 1.788.669 1.38.711 1.527c.522 1.192 1.044 2.385 1.504 3.587l.648 1.725.585 1.674.115.334c.188.544.366 1.046.533 1.653.721 2.269 1.317 4.581 1.818 6.913.115.554.23 1.046.335 1.652l.25 1.402.23 1.401.282 1.967.209 1.746c.028.152.046.306.053.46 0 .377.073.764.104 1.161.063.576.105 1.14.136 1.726.073.962.115 1.914.146 2.866s.042 1.642.042 2.478z" fill="#01438d"/><path d="M166.661 198.05l-1.191.659-2.257 1.161-4.64 2.092-2.372.941-2.173.785-1.756.585-1.912.565a6.18 6.18 0 0 1-.742.23l-1.379.366-1.411.345a4.27 4.27 0 0 1-.668.168l-1.923.418-1.641.324-1.995.356-2.09.293-1.818.209-1.798.178-1.891.146-2.518.115h-2.519-2.194l-1.4-.063a8.22 8.22 0 0 1-.888 0c-.408 0-.826 0-1.223-.073-.763 0-1.525-.115-2.267-.188h-.105l-2.351-.283-1.473-.209-1.881-.293-1.996-.376-1.902-.408-1.348-.314-1.588-.408-3.135-.91-1.922-.638-6.928-2.708-1.306-.607-3.532-1.757-1.651-.91-1.651-.952-1.578-1.035c-2.669-1.669-5.234-3.499-7.68-5.48l-1.306-1.046-1.223-1.046-1.317-1.192-4.18-4.111-1.661-1.799-1.651-1.924-1.097-1.339c-.013-.033-.031-.065-.052-.094l-.742-.941-1.233-1.621-1.641-2.322-1.243-1.914c-.056-.068-.105-.142-.146-.22l-1.191-1.945-.763-1.297c-6.51-11.745-5.893-27.339 1.557-40.788 8.589-15.532 26.249-28.239 52.549-28.887h2.236c-4.484-.006-8.789 1.763-11.976 4.921s-4.997 7.45-5.035 11.938v26.429c0 27.548 12.946 46.018 28.902 54.835 13.125 7.269 28.276 8.043 39.906 2.039z" fill="#0156b3"/><path d="M158.178 114.743c-.008-4.499-1.798-8.812-4.976-11.993s-7.488-4.973-11.983-4.981h-26.405c-27.524 0-45.977 12.958-54.786 28.929-7.45 13.481-8.067 29.075-1.557 40.788a50.36 50.36 0 0 1-1.139-2.091l-.93-1.789-.669-1.38-.711-1.527c-.773-1.747-1.505-3.514-2.153-5.313l-.585-1.674-.073-.282c-.188-.544-.366-1.046-.533-1.652-.721-2.27-1.317-4.581-1.818-6.914-.115-.554-.23-1.046-.334-1.652-.314-1.59-.554-3.138-.763-4.769-.125-.596-.188-1.161-.251-1.747l-.157-1.621-.136-1.726-.188-2.823c-.073-.91 0-1.684 0-2.521v-2.196c0-.481 0-.963.052-1.454.001-.297.019-.594.052-.889 0-.408 0-.826.073-1.224 0-.763.115-1.527.188-2.269v-.105c.073-.795.167-1.569.282-2.353l.209-1.475c.084-.638.188-1.265.293-1.882s.293-1.412.418-2.04l.407-1.903.314-1.349.407-1.59c.282-1.046.575-2.092.909-3.138.188-.648.418-1.297.637-1.924a74.38 74.38 0 0 1 2.706-6.934c.188-.439.397-.858.606-1.307a69.36 69.36 0 0 1 1.755-3.535c.293-.554.606-1.109.909-1.653l.951-1.653c.313-.544.648-1.046.982-1.611a79.39 79.39 0 0 1 5.475-7.687l1.045-1.307c.345-.418.679-.805 1.045-1.224a42.56 42.56 0 0 1 1.191-1.318c.585-.68 1.212-1.339 1.86-1.987l.951-.952c.418-.418.857-.847 1.296-1.245a45.19 45.19 0 0 1 1.797-1.663l1.923-1.653 1.338-1.098.094-.052a17.37 17.37 0 0 1 .94-.743c.533-.418 1.045-.837 1.62-1.234.752-.554 1.526-1.046 2.32-1.642l1.912-1.245a1.34 1.34 0 0 1 .219-.146l1.944-1.192 1.327-.774c11.734-6.516 27.314-5.899 40.752 1.558 15.517 8.587 28.213 26.262 28.86 52.586.074.732.084 1.475.084 2.238z" fill="#0068d9"/><path d="M196.004 129.212c-8.589 15.531-26.249 28.238-52.549 28.886h-2.236a16.98 16.98 0 0 0 11.982-4.98 17.02 17.02 0 0 0 4.977-11.994v-26.377c0-27.548-12.947-46.018-28.903-54.824-13.469-7.457-29.049-8.074-40.752-1.558.69-.397 1.379-.774 2.09-1.14l1.787-.931 1.379-.669.397-.178 1.129-.533c1.17-.523 2.382-1.046 3.584-1.506l1.724-.648c.564-.209 1.118-.397 1.672-.586.095-.033.193-.061.292-.084.533-.188 1.045-.366 1.641-.533a83 83 0 0 1 3.636-1.046 22.63 22.63 0 0 1 1.139-.282 46.29 46.29 0 0 1 2.09-.502l1.734-.366a11.5 11.5 0 0 1 .826-.146c.616-.136 1.264-.261 1.933-.335s1.306-.199 1.965-.282l1.745-.209.459-.052c.376 0 .763-.073 1.16-.105a31.07 31.07 0 0 1 1.724-.136h.857c.658 0 1.338-.073 2.006-.094h2.529c1.933 0 3.835.073 5.747.209.763 0 1.526.115 2.268.188h.397l1.243.136.815.115c3.438.437 6.842 1.108 10.188 2.008l1.568.439c.522.157 1.045.293 1.567.471l.972.314.951.324c.585.188 1.17.387 1.766.617l1.86.701 1.598.659c5.479 2.283 10.682 5.181 15.507 8.639.585.408 1.149.837 1.724 1.276l1.86 1.454c.617.502.982.774 1.473 1.203l.941.795.115.115 1.316 1.192a64.28 64.28 0 0 1 4.18 4.11c.293.293.554.586.836.889l.826.91a25.48 25.48 0 0 1 .836.962l.815.962 1.097 1.339c.282.324.522.659.794 1.046.418.533.836 1.046 1.233 1.621 1.045 1.443 2.09 2.928 3.03 4.455l1.191 1.945a50.98 50.98 0 0 1 .763 1.297c6.573 11.745 5.956 27.339-1.494 40.821z" fill="#017aff"/><path opacity=".01" d="M158.136 112.505C149.954 63.35 105.2 56.029 78.137 65.368l.094-.052c.293-.251.616-.502.941-.743.533-.418 1.045-.837 1.62-1.234.752-.554 1.526-1.046 2.32-1.642l1.912-1.245a1.34 1.34 0 0 1 .22-.146l1.944-1.192 1.296-.753c11.735-6.516 27.315-5.899 40.752 1.558 15.559 8.587 28.234 26.262 28.903 52.586zm37.868 16.707c-8.589 15.531-26.249 28.238-52.549 28.886 49.111-8.189 56.426-52.973 47.094-80.05.283.324.523.659.795 1.046.418.533.835 1.046 1.233 1.621 1.044 1.443 2.089 2.928 3.03 4.455l1.191 1.945.763 1.297c6.51 11.725 5.893 27.318-1.557 40.8zm-18.129 61.339a78.41 78.41 0 0 1-9.028 6.276l-1.16.69-2.216 1.213 1.192-.659c-11.63 6.003-26.782 5.229-39.896-2.039-15.517-8.597-28.213-26.272-28.86-52.597 8.171 49.083 52.915 56.466 79.968 47.116zM65.481 177.886c-.013-.033-.031-.065-.052-.094l-.742-.941-1.233-1.621-1.641-2.322-1.243-1.914a1.29 1.29 0 0 1-.146-.22l-1.191-1.945-.763-1.297c-6.51-11.745-5.893-27.339 1.557-40.789 8.589-15.531 26.249-28.238 52.55-28.887-49.07 8.148-56.437 52.942-47.095 80.03z" fill="#000"/><defs><filter id="A" x="41.25" y="48" width="173.5" height="175" filterUnits="userSpaceOnUse" color-interpolation-filters="sRGB"><feFlood flood-opacity="0" result="A"/><feColorMatrix in="SourceAlpha" values="0 0 0 0 0 0 0 0 0 0 0 0 0 0 0 0 0 0 127 0"/><feOffset dy="0.228299"/><feGaussianBlur stdDeviation=".093"/><feColorMatrix values="0 0 0 0 0 0 0 0 0 0 0 0 0 0 0 0 0 0 0.0253031 0"/><feBlend in2="A" result="B"/><feColorMatrix in="SourceAlpha" values="0 0 0 0 0 0 0 0 0 0 0 0 0 0 0 0 0 0 127 0"/><feOffset dy="0.548633"/><feGaussianBlur stdDeviation=".224"/><feColorMatrix values="0 0 0 0 0 0 0 0 0 0 0 0 0 0 0 0 0 0 0.0363503 0"/><feBlend in2="B" result="C"/><feColorMatrix in="SourceAlpha" values="0 0 0 0 0 0 0 0 0 0 0 0 0 0 0 0 0 0 127 0"/><feOffset dy="1.03303"/><feGaussianBlur stdDeviation=".423"/><feColorMatrix values="0 0 0 0 0 0 0 0 0 0 0 0 0 0 0 0 0 0 0.045 0"/><feBlend in2="C" result="D"/><feColorMatrix in="SourceAlpha" values="0 0 0 0 0 0 0 0 0 0 0 0 0 0 0 0 0 0 127 0"/><feOffset dy="1.84275"/><feGaussianBlur stdDeviation=".754"/><feColorMatrix values="0 0 0 0 0 0 0 0 0 0 0 0 0 0 0 0 0 0 0.0536497 0"/><feBlend in2="D" result="E"/><feColorMatrix in="SourceAlpha" values="0 0 0 0 0 0 0 0 0 0 0 0 0 0 0 0 0 0 127 0"/><feOffset dy="3.44665"/><feGaussianBlur stdDeviation="1.41"/><feColorMatrix values="0 0 0 0 0 0 0 0 0 0 0 0 0 0 0 0 0 0 0.0646969 0"/><feBlend in2="E" result="F"/><feColorMatrix in="SourceAlpha" values="0 0 0 0 0 0 0 0 0 0 0 0 0 0 0 0 0 0 127 0"/><feOffset dy="8.25"/><feGaussianBlur stdDeviation="3.375"/><feColorMatrix values="0 0 0 0 0 0 0 0 0 0 0 0 0 0 0 0 0 0 0.09 0"/><feBlend in2="F"/><feBlend in="SourceGraphic"/></filter><linearGradient id="B" x1="128" y1="0" x2="128" y2="256" gradientUnits="userSpaceOnUse"><stop stop-opacity="0"/><stop offset="1" stop-opacity=".2"/></linearGradient><path id="C" d="M0 72.68c0-24.895 0-37.342 4.691-46.917A46 46 0 0 1 25.763 4.691C35.338 0 47.785 0 72.68 0h110.64c24.895 0 37.342 0 46.917 4.691 9.168 4.491 16.581 11.904 21.072 21.072C256 35.338 256 47.785 256 72.68v110.64c0 24.895 0 37.342-4.691 46.917-4.491 9.168-11.904 16.581-21.072 21.072C220.662 256 208.215 256 183.32 256H72.68c-24.895 0-37.342 0-46.917-4.691-9.168-4.491-16.581-11.904-21.072-21.072C0 220.662 0 208.215 0 183.32V72.68z"/></defs></svg>